Coordinates
version=1
nRows=29
nColumns=24
inDegrees=yes

Units are S.I. units (second, meters, Newtons, ...)
Angles are in degrees.

endheader
time	pelvis_tilt	pelvis_list	pelvis_rotation	pelvis_tx	pelvis_ty	pelvis_tz	hip_flexion_r	hip_adduction_r	hip_rotation_r	knee_angle_r	ankle_angle_r	subtalar_angle_r	mtp_angle_r	hip_flexion_l	hip_adduction_l	hip_rotation_l	knee_angle_l	ankle_angle_l	subtalar_angle_l	mtp_angle_l	lumbar_extension	lumbar_bending	lumbar_rotation
      5.52000000	     -0.49734416	      4.42383673	     17.14118269	      0.92179180	      0.65445514	     -0.15572175	     22.63579839	     -7.28496497	    -18.78167345	     -6.03362112	     -0.44203440	    -11.14188907	      0.00000000	    -17.63898653	      0.79878996	     13.76863656	    -14.42089658	     18.11655435	     -2.48006181	      0.00000000	     -6.39016391	     -0.85933787	    -12.78057313
      5.53000000	     -0.32939804	      3.86304659	     17.27975051	      0.93388425	      0.65422227	     -0.15462562	     22.65853982	     -6.57600823	    -17.71518235	     -7.91554946	     -2.59768969	    -14.45671952	      0.00000000	    -17.53520960	     -0.07266572	     13.61852743	    -16.36888773	     16.94179776	     -2.48272015	      0.00000000	     -6.03239128	     -0.20667993	    -12.76637275
      5.54000000	     -0.13485764	      3.23755570	     17.23257300	      0.94578467	      0.65437012	     -0.15333323	     22.80048414	     -5.71635994	    -16.38973395	    -10.02225503	     -3.99793460	    -17.29037015	      0.00000000	    -17.22429889	     -0.91429340	     13.22268308	    -18.61654864	     15.25387841	     -2.48069899	      0.00000000	     -5.73286115	      0.51756481	    -12.49851913
      5.55000000	      0.18164444	      2.49753850	     17.03670321	      0.95753710	      0.65495953	     -0.15194822	     22.91617202	     -4.66351230	    -15.35464558	    -12.26697735	     -4.30544994	    -19.09505435	      0.00000000	    -16.83258548	     -1.80790041	     12.64869238	    -21.08007666	     13.13837519	     -2.68764773	      0.00000000	     -5.56337060	      1.43605060	    -12.12372189
      5.56000000	      0.54630189	      1.68883040	     16.81995277	      0.96911738	      0.65591180	     -0.15052581	     22.90591384	     -3.50490174	    -14.77025513	    -14.36479720	     -3.58498803	    -19.80995227	      0.00000000	    -16.21753579	     -2.74519887	     11.88725680	    -23.85652678	     10.55032720	     -2.90330557	      0.00000000	     -5.47249472	      2.46031486	    -11.81354384
      5.57000000	      0.89122107	      0.91971039	     16.55898991	      0.98051989	      0.65708480	     -0.14900268	     22.69463540	     -2.30205004	    -14.30206297	    -16.05093260	     -2.56845388	    -20.36803300	      0.00000000	    -15.36387289	     -3.59780400	     11.03378241	    -26.87910688	      7.43523323	     -3.33625303	      0.00000000	     -5.43508122	      3.42137938	    -11.49343674
      5.58000000	      1.21141560	      0.31657142	     16.41350608	      0.99168239	      0.65848435	     -0.14757667	     22.20769650	     -1.27438563	    -14.17859201	    -17.27937329	     -1.12726759	    -20.43835550	      0.00000000	    -14.32415523	     -4.23900726	     10.47645848	    -30.03261774	      3.54010856	     -4.53084791	      0.00000000	     -5.46226442	      4.19748476	    -11.29115387
      5.59000000	      1.46511496	     -0.23345597	     16.37463138	      1.00256355	      0.65994256	     -0.14611515	     21.48432661	     -0.27943807	    -14.23547621	    -17.91807130	      0.21749841	    -20.43005411	      0.00000000	    -12.93214724	     -4.83682266	      9.93465513	    -33.46540971	     -0.50024646	     -5.67131534	      0.00000000	     -5.48840331	      4.86037435	    -11.21005667
      5.60000000	      1.65265904	     -0.67058919	     16.42171694	      1.01308911	      0.66140828	     -0.14467112	     20.58888292	      0.60866758	    -14.38776540	    -18.09754264	      1.39265517	    -20.42769251	      0.00000000	    -11.26151195	     -5.27792651	      9.58526560	    -37.07630034	     -4.56233651	     -7.10468158	      0.00000000	     -5.52939354	      5.35200199	    -11.17352235
      5.61000000	      1.76728354	     -1.00315017	     16.51761635	      1.02320106	      0.66282699	     -0.14325360	     19.61624323	      1.38320280	    -14.59625410	    -17.96191537	      2.41693959	    -20.37884034	      0.00000000	     -9.33514472	     -5.54275365	      9.39192419	    -40.81691156	     -8.35063759	     -8.87583866	      0.00000000	     -5.58642769	      5.68582953	    -11.13926555
      5.62000000	      1.81178743	     -1.31254695	     16.63643649	      1.03288476	      0.66413969	     -0.14187785	     18.66036143	      2.11191473	    -14.85084526	    -17.64768423	      3.29276321	    -20.31436244	      0.00000000	     -7.17609318	     -5.68950860	      9.33368814	    -44.63829979	    -11.57949147	    -10.96442639	      0.00000000	     -5.63498801	      5.96173700	    -11.01009275
      5.63000000	      1.80467555	     -1.60487200	     16.73157060	      1.04215171	      0.66535206	     -0.14054192	     17.76707035	      2.79801387	    -15.11265437	    -17.28326560	      4.09885884	    -20.15714901	      0.00000000	     -4.86335172	     -5.72094183	      9.33247383	    -48.43409352	    -14.18797970	    -13.39685500	      0.00000000	     -5.69233601	      6.20414547	    -10.79730831
      5.64000000	      1.76428373	     -1.92999754	     16.78364449	      1.05106330	      0.66648829	     -0.13924839	     16.94122448	      3.49161106	    -15.39624030	    -16.89770926	      4.79978694	    -19.86222553	      0.00000000	     -2.46851594	     -5.68447515	      9.39184814	    -52.09220449	    -16.08283900	    -16.05457865	      0.00000000	     -5.74728703	      6.47641242	    -10.40052890
      5.65000000	      1.72556277	     -2.18654615	     16.74380447	      1.05968359	      0.66761865	     -0.13795877	     16.14912495	      4.11493761	    -15.55402282	    -16.59268558	      5.69245963	    -19.40303256	      0.00000000	     -0.12856710	     -5.50143424	      9.43760994	    -55.47170569	    -17.35842810	    -18.85882415	      0.00000000	     -5.86382981	      6.68180899	     -9.99807081
      5.66000000	      1.67664184	     -2.43961192	     16.64332466	      1.06809667	      0.66875943	     -0.13667801	     15.37672985	      4.72278740	    -15.70006453	    -16.27665657	      6.47229433	    -18.85624947	      0.00000000	      2.16170125	     -5.25059579	      9.52664692	    -58.52057973	    -17.85019995	    -21.29172701	      0.00000000	     -5.97496674	      6.88372683	     -9.44485488
      5.67000000	      1.66967050	     -2.64319417	     16.43172248	      1.07640565	      0.66999270	     -0.13534463	     14.49792154	      5.33817230	    -15.56794041	    -15.85204560	      7.12679512	    -18.35450587	      0.00000000	      4.28732820	     -4.92740974	      9.59968308	    -61.16361218	    -17.45648918	    -23.00339211	      0.00000000	     -6.14553439	      7.03969896	     -8.81464738
      5.68000000	      1.54734571	     -2.57513028	     16.20076973	      1.08449283	      0.67125823	     -0.13411948	     13.74136206	      5.56130135	    -15.66944323	    -15.61027845	      8.10183931	    -17.34408375	      0.00000000	      6.34051115	     -4.20225422	      9.77845632	    -63.33087285	    -16.71329941	    -24.45345923	      0.00000000	     -6.27291899	      6.86839070	     -8.28504192
      5.69000000	      1.47969322	     -2.49207394	     15.82888807	      1.09254201	      0.67258659	     -0.13275561	     12.84231593	      5.86348288	    -15.39380047	    -15.17709677	      8.71362208	    -16.81662905	      0.00000000	      8.21995068	     -3.50979513	      9.85914820	    -65.07572190	    -15.37195471	    -24.93863596	      0.00000000	     -6.46089308	      6.67852022	     -7.54266636
      5.70000000	      1.35982922	     -2.28537873	     15.51188765	      1.10042151	      0.67390644	     -0.13150081	     11.99203272	      5.95595202	    -15.40119377	    -14.79522399	      9.45346251	    -15.90182892	      0.00000000	     10.05136662	     -2.65492188	     10.05511822	    -66.43903776	    -13.35715033	    -24.40328024	      0.00000000	     -6.61222819	      6.34976886	     -6.99293455
      5.71000000	      1.23868128	     -2.01100570	     15.08644643	      1.10821440	      0.67522531	     -0.13019048	     11.09992367	      6.00231556	    -15.24416681	    -14.34276751	     10.10608884	    -15.10752319	      0.00000000	     11.74820434	     -1.76917650	     10.16049652	    -67.36615900	    -11.26578256	    -23.54774378	      0.00000000	     -6.78652112	      5.93980050	     -6.33171343
      5.72000000	      1.10288927	     -1.70674197	     14.61828223	      1.11589326	      0.67649079	     -0.12889387	     10.22019173	      5.99764881	    -15.12664019	    -13.87144918	     10.72434307	    -14.30545211	      0.00000000	     13.36162710	     -0.89593982	     10.22093967	    -67.90339821	     -9.05566490	    -22.44942364	      0.00000000	     -6.95281136	      5.49553932	     -5.64350690
      5.73000000	      0.95712387	     -1.39254289	     14.10536432	      1.12344171	      0.67767921	     -0.12761379	      9.36641982	      5.96236368	    -15.00919360	    -13.40762378	     11.29953526	    -13.46500495	      0.00000000	     14.89383095	     -0.06647941	     10.22352783	    -68.06322895	     -6.87119383	    -21.42328215	      0.00000000	     -7.12543103	      5.04539071	     -4.92985241
      5.74000000	      0.80547328	     -1.09387491	     13.55424136	      1.13087265	      0.67876548	     -0.12635779	      8.55156480	      5.91811699	    -14.91840947	    -12.97283333	     11.85304496	    -12.60666680	      0.00000000	     16.34682997	      0.68044779	     10.15897802	    -67.85532071	     -4.81540607	    -20.73585802	      0.00000000	     -7.29651353	      4.61695113	     -4.17284023
      5.75000000	      0.64768944	     -0.81701240	     12.96201388	      1.13818847	      0.67973466	     -0.12512215	      7.78549059	      5.87380355	    -14.81023475	    -12.58587189	     12.37804409	    -11.74800595	      0.00000000	     17.71996630	      1.33394395	     10.01990932	    -67.28538048	     -3.00836713	    -20.60226706	      0.00000000	     -7.46339112	      4.21556750	     -3.37019814
      5.76000000	      0.47553384	     -0.56100656	     12.30898789	      1.14539270	      0.68056631	     -0.12387782	      7.06726146	      5.84589003	    -14.53511585	    -12.22239631	     12.70619822	    -11.17626653	      0.00000000	     19.01273050	      1.89443430	      9.80198068	    -66.34812374	     -1.63645168	    -21.24321359	      0.00000000	     -7.62992850	      3.83128003	     -2.44728063
      5.77000000	      0.30273889	     -0.35413019	     11.63289187	      1.15253206	      0.68125073	     -0.12265876	      6.39204838	      5.84818833	    -14.23628664	    -11.91096216	     13.10709236	    -10.51278945	      0.00000000	     20.22550692	      2.32096357	      9.53024460	    -65.09052988	     -0.43352183	    -22.27545117	      0.00000000	     -7.77346205	      3.51324749	     -1.56008767
      5.78000000	      0.13265282	     -0.14064058	     10.97084231	      1.15962246	      0.68182990	     -0.12151620	      5.76958472	      5.79592584	    -14.12303521	    -11.71139353	     13.71859900	     -9.50843241	      0.00000000	     21.30500965	      2.72172238	      9.28754183	    -63.44777483	      0.09369952	    -24.25440445	      0.00000000	     -7.90947098	      3.19224510	     -0.77607960
      5.79000000	     -0.05400913	      0.02484444	     10.25405149	      1.16667910	      0.68224215	     -0.12034362	      5.17477242	      5.80354797	    -13.76482793	    -11.49321323	     14.12732846	     -8.86730493	      0.00000000	     22.30448191	      2.98589490	      8.99719325	    -61.50536200	      0.40474145	    -26.39730638	      0.00000000	     -8.01026684	      2.91893654	      0.08301284
      5.80000000	     -0.24405684	      0.15170569	      9.52489139	      1.17371343	      0.68251896	     -0.11919753	      4.60746530	      5.83582853	    -13.38405507	    -11.29715691	     14.51971070	     -8.26192109	      0.00000000	     23.19124686	      3.15940204	      8.74440755	    -59.25668194	      0.38664824	    -28.73987719	      0.00000000	     -8.08423674	      2.69280894	      0.92765955
